<?xml version="1.0" encoding="UTF-8" ?>
<!DOCTYPE svg PUBLIC "-//W3C//DTD SVG 1.1//EN" "http://www.w3.org/Graphics/SVG/1.1/DTD/svg11.dtd">
<svg width="512pt" height="512pt" viewBox="0 0 512 512" version="1.1" xmlns="http://www.w3.org/2000/svg">
<g id="#5775bcff">
<path fill="#5775bc" opacity="1.00" d=" M 350.38 25.32 C 353.95 24.65 357.74 24.70 361.25 25.72 C 364.57 26.31 368.03 25.55 371.28 26.66 C 387.92 29.66 403.83 37.23 416.27 48.73 C 420.05 52.62 423.98 56.37 427.75 60.27 C 434.52 69.08 439.54 79.09 443.65 89.38 C 446.01 95.71 446.70 102.49 447.98 109.08 C 447.95 120.30 448.79 131.70 445.68 142.62 C 442.32 157.24 434.96 170.83 425.04 182.02 C 410.33 200.23 387.62 211.02 364.62 213.69 C 340.01 216.17 314.00 209.32 295.25 192.76 C 292.67 190.31 289.53 188.53 287.18 185.83 C 279.10 176.83 271.77 166.81 267.66 155.31 C 264.16 146.24 261.70 136.72 260.97 127.04 C 261.06 121.38 260.90 115.73 261.03 110.08 C 263.01 95.76 266.97 81.27 275.17 69.18 C 278.32 64.43 281.46 59.57 285.73 55.73 C 289.69 52.03 293.23 47.87 297.36 44.36 C 305.99 38.53 315.01 32.94 325.11 30.08 C 329.74 28.20 334.70 27.57 339.54 26.49 C 343.07 25.43 346.87 26.57 350.38 25.32 M 349.43 63.45 C 329.25 65.23 310.57 78.82 302.35 97.34 C 298.22 104.48 297.70 112.94 298.00 120.99 C 297.49 129.38 299.89 137.73 304.04 144.98 C 306.24 150.39 310.26 154.67 313.76 159.24 C 320.36 165.39 328.08 170.36 336.62 173.36 C 346.39 175.97 356.83 177.24 366.75 174.72 C 378.16 172.82 387.75 165.68 396.13 158.14 C 402.01 151.20 407.01 143.39 409.57 134.60 C 411.04 130.47 410.76 126.05 411.92 121.87 C 412.49 119.15 411.42 116.54 411.04 113.90 C 411.17 104.55 406.42 96.08 401.59 88.40 C 399.11 84.02 395.17 80.83 391.72 77.27 C 381.32 68.26 367.64 63.52 353.98 62.94 C 352.45 62.94 350.91 63.06 349.43 63.45 Z" />
<path fill="#5775bc" opacity="1.00" d=" M 208.94 64.13 L 209.74 64.23 C 209.48 110.15 209.74 156.07 209.61 201.99 C 209.62 205.92 209.23 209.93 210.22 213.78 C 213.08 214.55 216.06 214.44 219.00 214.44 C 228.33 214.23 237.67 214.54 247.00 214.22 L 247.02 215.01 C 235.07 214.95 223.10 215.09 211.15 214.95 C 209.58 215.07 208.75 213.31 209.00 211.96 C 208.96 162.68 209.08 113.40 208.94 64.13 Z" />
<path fill="#5775bc" opacity="1.00" d=" M 186.22 179.00 L 187.01 178.98 C 186.99 189.97 187.02 200.96 187.00 211.95 C 187.24 213.30 186.41 215.07 184.85 214.95 C 172.56 215.08 160.27 214.95 147.99 215.01 L 148.05 214.14 C 157.36 214.61 166.68 214.22 176.00 214.43 C 179.26 214.44 182.59 214.61 185.78 213.78 C 186.54 210.92 186.45 207.93 186.44 205.00 C 186.25 196.33 186.53 187.67 186.22 179.00 Z" />
<path fill="#5775bc" opacity="1.00" d=" M 260.98 233.57 C 323.33 233.50 385.67 233.50 448.02 233.57 C 447.98 247.46 448.01 261.35 448.00 275.24 C 385.67 275.26 323.33 275.26 261.00 275.24 C 260.99 261.35 261.03 247.46 260.98 233.57 Z" />
<path fill="#5775bc" opacity="1.00" d=" M 343.38 291.33 C 349.88 290.53 356.49 291.24 363.03 290.97 C 374.95 291.96 386.54 295.57 397.36 300.62 C 407.13 306.12 416.06 313.09 423.78 321.22 C 428.13 325.04 430.76 330.31 433.99 335.03 C 443.36 349.49 448.65 366.74 448.00 384.00 C 448.92 402.68 443.11 421.37 433.07 437.05 C 427.56 445.68 419.92 452.56 412.74 459.75 C 398.87 470.19 382.29 477.11 365.00 479.02 C 360.67 479.06 356.33 478.96 352.00 479.00 C 339.48 479.68 327.13 476.13 315.67 471.35 C 294.16 461.01 276.14 442.88 267.52 420.45 C 263.79 412.40 262.54 403.57 261.02 394.92 C 260.98 383.75 260.30 372.41 263.53 361.58 C 267.02 346.48 275.15 332.84 285.22 321.23 C 288.60 317.93 291.86 314.51 295.25 311.24 C 309.38 300.87 325.83 293.17 343.38 291.33 M 344.40 329.42 C 341.75 330.10 339.07 330.70 336.43 331.44 C 326.98 335.64 317.55 340.74 310.84 348.84 C 308.76 351.78 306.86 354.85 304.83 357.82 C 301.37 363.06 299.67 369.18 298.21 375.22 C 297.75 380.13 298.11 385.09 298.00 390.02 C 297.66 395.65 299.80 401.01 301.87 406.14 C 309.08 424.13 326.06 437.76 345.23 440.75 C 355.34 441.58 365.98 441.75 375.42 437.41 C 381.28 435.52 386.08 431.52 391.01 427.99 C 396.15 424.44 399.45 419.01 402.97 413.99 C 409.24 405.32 411.16 394.42 412.02 384.04 C 410.91 379.27 410.98 374.30 409.32 369.65 C 406.88 360.57 401.40 352.70 395.27 345.73 C 391.30 341.19 385.83 338.46 380.97 335.04 C 374.74 331.93 367.88 329.98 360.99 329.05 C 355.47 329.15 349.86 328.56 344.40 329.42 Z" />
</g>
<g id="#2d8d3eff">
<path fill="#2d8d3e" opacity="1.00" d=" M 121.12 33.11 C 131.26 29.26 142.18 27.59 153.00 28.00 C 184.33 28.00 215.67 28.00 247.00 28.00 C 247.00 90.07 247.00 152.15 247.00 214.22 C 237.67 214.54 228.33 214.23 219.00 214.44 C 216.06 214.44 213.08 214.55 210.22 213.78 C 209.23 209.93 209.62 205.92 209.61 201.99 C 209.74 156.07 209.48 110.15 209.74 64.23 L 208.94 64.13 C 187.96 63.83 166.96 64.07 145.98 64.03 C 141.62 64.14 137.78 66.60 133.63 67.66 C 120.33 72.26 108.87 82.13 103.02 95.01 C 96.43 106.54 94.08 120.66 97.42 133.59 C 99.21 143.52 105.30 151.88 111.31 159.70 C 118.41 167.87 128.10 173.46 138.40 176.56 C 144.20 177.87 150.17 177.88 156.01 178.92 C 166.08 179.14 176.15 178.92 186.22 179.00 C 186.53 187.67 186.25 196.33 186.44 205.00 C 186.45 207.93 186.54 210.92 185.78 213.78 C 182.59 214.61 179.26 214.44 176.00 214.43 C 166.68 214.22 157.36 214.61 148.05 214.14 C 135.60 214.33 123.33 210.96 111.98 206.03 C 99.51 199.91 88.50 191.06 79.39 180.61 C 66.81 163.87 57.68 143.33 59.01 122.00 C 57.52 100.89 65.56 79.93 78.40 63.40 C 81.50 60.13 83.76 56.07 87.68 53.66 C 96.90 44.23 108.39 36.78 121.12 33.11 Z" />
</g>
<g id="#ff006eff">
<path fill="#ff006e" opacity="1.00" d=" M 104.11 233.73 C 106.73 233.38 109.26 232.42 111.94 232.48 C 156.62 232.46 201.30 232.57 245.98 232.43 C 246.27 247.10 246.36 261.81 245.93 276.48 C 203.61 276.25 161.29 276.48 118.96 276.36 C 113.75 276.07 108.61 278.22 104.89 281.82 C 102.27 285.10 101.26 289.26 100.25 293.24 C 99.64 301.10 104.49 309.43 112.21 311.73 C 137.13 311.98 162.07 311.65 186.99 311.88 C 192.50 313.35 198.27 312.81 203.77 314.32 C 215.48 316.69 224.92 324.70 233.25 332.78 C 236.59 337.51 239.89 342.35 242.44 347.57 C 245.74 356.65 248.93 366.21 248.02 375.99 C 247.92 379.98 248.11 383.97 247.96 387.96 C 245.30 407.23 233.74 425.11 217.12 435.26 C 209.73 439.17 201.49 442.34 192.98 441.83 C 188.92 441.64 185.10 443.53 181.03 443.22 C 153.68 443.07 126.33 443.36 98.98 443.07 C 98.78 454.91 99.50 466.80 98.59 478.61 C 85.56 478.78 72.50 478.90 59.47 478.54 C 58.77 462.04 59.53 445.50 59.02 429.00 C 58.61 420.99 58.94 412.97 58.80 404.97 C 58.89 402.84 58.49 400.54 59.62 398.62 C 60.96 397.95 62.52 398.26 63.96 398.17 C 105.65 398.25 147.34 398.15 189.03 398.21 C 194.24 398.29 199.48 395.82 202.70 391.74 C 205.38 387.27 208.46 382.44 207.88 376.99 C 208.10 367.10 200.27 357.16 190.04 356.81 C 166.02 356.81 142.00 356.78 117.98 356.83 C 104.71 357.01 91.29 352.48 81.31 343.62 C 74.95 338.56 70.19 331.82 66.15 324.85 C 63.16 317.53 60.67 309.92 59.87 302.02 C 59.75 297.00 59.82 291.98 59.83 286.96 C 60.57 278.05 63.35 269.39 67.58 261.53 C 70.45 256.02 75.33 252.01 79.20 247.24 C 86.15 240.76 94.57 235.30 104.11 233.73 Z" />
</g>
</svg>
